<svg xmlns="http://www.w3.org/2000/svg" width="1280" height="520" viewBox="0 0 1280 520" role="img" aria-labelledby="title desc" lang="zh-CN">
  <title id="title">AgentProvenance 生产者架构</title>
  <desc id="desc">Agent 与沙箱工作负载通过生产者配置接入共同核心，提供可视化、查询和回放。</desc>
  <defs>
    <style>
      .bg{fill:#f8fafc}
      .title{font:800 28px ui-sans-serif,system-ui,-apple-system,Segoe UI,sans-serif;fill:#0f172a}
      .subtitle{font:15px ui-sans-serif,system-ui,-apple-system,Segoe UI,sans-serif;fill:#64748b}
      .card{fill:#fff;stroke:#d8e0ea;stroke-width:1.8;filter:url(#shadow)}
      .work{stroke:#0ea5e9}.profile{stroke:#10b981}.core{stroke:#6366f1}.out{stroke:#f97316}
      .h{font:800 18px ui-sans-serif,system-ui,-apple-system,Segoe UI,sans-serif;fill:#0f172a}
      .t{font:14px ui-sans-serif,system-ui,-apple-system,Segoe UI,sans-serif;fill:#334155}
      .small{font:12.5px ui-sans-serif,system-ui,-apple-system,Segoe UI,sans-serif;fill:#64748b}
      .pill{fill:#f8fafc;stroke:#e2e8f0;stroke-width:1.1}
      .edge{fill:none;stroke:#475569;stroke-width:3;stroke-linecap:round;marker-end:url(#arrow)}
      .note{font:13px ui-monospace,SFMono-Regular,Menlo,Consolas,monospace;fill:#475569}
    </style>
    <filter id="shadow" x="-18%" y="-18%" width="136%" height="136%">
      <feDropShadow dx="0" dy="12" stdDeviation="16" flood-color="#0f172a" flood-opacity=".10" />
      <feDropShadow dx="0" dy="1" stdDeviation="1.5" flood-color="#0f172a" flood-opacity=".08" />
    </filter>
    <marker id="arrow" viewBox="0 0 10 10" refX="8.7" refY="5" markerWidth="8" markerHeight="8" orient="auto-start-reverse">
      <path d="M0 0L10 5L0 10z" fill="#475569" />
    </marker>
  </defs>

  <rect class="bg" width="1280" height="520" />
  <text x="52" y="58" class="title"><tspan fill="#0071e3">Agent</tspan>Provenance：跨环境生产者</text>
  <text x="52" y="86" class="subtitle">本地 Linux、KVM 客体与 Kubernetes 共用一套证据模型。</text>

  <g transform="translate(48 142)">
    <rect width="252" height="238" rx="22" class="card work" />
    <text x="28" y="40" class="h">Agent / 沙箱</text>
    <text x="28" y="64" class="h">工作负载</text>
    <text x="28" y="92" class="small">Agent 实际运行的位置</text>
    <rect x="28" y="102" width="196" height="34" rx="17" class="pill" />
    <text x="50" y="124" class="t">本地记录</text>
    <rect x="28" y="148" width="196" height="34" rx="17" class="pill" />
    <text x="50" y="170" class="t">Kubernetes Pod</text>
    <rect x="28" y="194" width="196" height="34" rx="17" class="pill" />
    <text x="50" y="216" class="t">KVM 客体</text>
  </g>

  <g transform="translate(374 118)">
    <rect width="252" height="286" rx="22" class="card profile" />
    <text x="28" y="44" class="h">生产者配置</text>
    <text x="28" y="74" class="small">采集位置与归属方式</text>
    <rect x="28" y="102" width="196" height="34" rx="17" class="pill" />
    <text x="50" y="124" class="t">传感器部署位置</text>
    <rect x="28" y="148" width="196" height="34" rx="17" class="pill" />
    <text x="50" y="170" class="t">执行范围归属</text>
    <rect x="28" y="194" width="196" height="34" rx="17" class="pill" />
    <text x="50" y="216" class="t">事件传输</text>
    <rect x="28" y="240" width="196" height="34" rx="17" class="pill" />
    <text x="50" y="262" class="t">采集能力报告</text>
  </g>

  <g transform="translate(700 118)">
    <rect width="252" height="286" rx="22" class="card core" />
    <text x="28" y="44" class="h">AgentProvenance 核心</text>
    <text x="28" y="74" class="small">跨环境通用证据模型</text>
    <rect x="28" y="102" width="196" height="34" rx="17" class="pill" />
    <text x="50" y="124" class="t">关联</text>
    <rect x="28" y="148" width="196" height="34" rx="17" class="pill" />
    <text x="50" y="170" class="t">证据图</text>
    <rect x="28" y="194" width="196" height="34" rx="17" class="pill" />
    <text x="50" y="216" class="t">风险信号</text>
    <rect x="28" y="240" width="196" height="34" rx="17" class="pill" />
    <text x="50" y="262" class="t">签名证据包</text>
  </g>

  <g transform="translate(1026 142)">
    <rect width="206" height="238" rx="22" class="card out" />
    <text x="28" y="44" class="h">调查</text>
    <text x="28" y="74" class="small">查询入口</text>
    <rect x="28" y="104" width="150" height="34" rx="17" class="pill" />
    <text x="50" y="126" class="t">可视化界面</text>
    <rect x="28" y="150" width="150" height="34" rx="17" class="pill" />
    <text x="50" y="172" class="t">查询</text>
    <rect x="28" y="196" width="150" height="34" rx="17" class="pill" />
    <text x="50" y="218" class="t">回放</text>
  </g>

  <path d="M300 260H374" class="edge" />
  <path d="M626 260H700" class="edge" />
  <path d="M952 260H1026" class="edge" />

  <text x="640" y="450" text-anchor="middle" class="note">生产者配置适配采集与归属。</text>
  <text x="640" y="476" text-anchor="middle" class="note">图查询、校验、比较和回放共用同一套实现。</text>
</svg>
